<svg id="Layer_1" data-name="Layer 1" xmlns="http://www.w3.org/2000/svg" viewBox="0 0 672.73 949.74"><defs><style>.cls-1{fill:#fff;}</style></defs><path class="cls-1" d="M326.6,329.3l-63.53,40.84s-15.58,9.3,1.42,11.61l20.37,1.72-18.55,19.14-28.22,29.11,41.73-29.91,28.29-20.15s14.52-7.75-14.71-7.39l-13.57-.57L295,359.33Z"/><path class="cls-1" d="M574.06,625.35l-2.44-6.14-3.91-7.63-4.52-7.36-6.75-9.56-9.79-12.23-8.16-9.28-10-10.67-7.14-7.23-4.93-5.4-5.45-6.78-5.76-8.36-2.92-4.85-4-7.64-5.41-12.54-6.11-15.12-4.35-10.93-4.58-11.71-5.15-13.44-6.4-17.27-2.07-5.77-5.42-15.75L456.25,412l-2.61-8.82-2-7.62-1.42-7.8-.37-5.24,0-5.42.38-8.26.89-9.6,1.56-11.82L455,333.08,458.15,317l2.14-10,3.06-13.42,3.24-13.28,1.48-5.91.14-.76c.83-7.15-1.85-11.09-4.24-13.13-5.35-4.57-13.12-3-15-2.54L388,268.7a14.49,14.49,0,0,0-11.73,12l-.15,1.57-.06,1.6-.21,2.46-.28,1.87-.35,1.69-.36,1.3-.5,1.44-.41,1-.8,1.52-.67,1-.49.62-.66.72-1,.86-.49.31-.4.21-3.76,1-5.54,1.23L355,302l-2.57.38-3.83.45-4.38.32-2,.06h-1.37l-2.27-.05-1.81-.1-1.85-.16-2.94-.42-1.69-.34-2-.5-1.61-.51-1.31-.5-1-.43-1.1-.54-1-.54-1-.63-.87-.63-1-.79-.69-.66-.52-.56-.77-.95-.47-.68-.51-.86-.48-1-2.95-11-2.28-7.82-1.69-5.17-1.56-4.19-.61-1.44-1.09-2.31c-2.41-4.61-5.48-6.64-9.12-6.05-3.44.56-5.92,3.5-6.64,8l-.59,3.95-.32,4.66-.11,5.95,0,4.38-.1.49-.44,1L287,286l-3.94,6.89-1.84,2.93-3,4.47L275.66,304l-3.59,4.92-6,7.76L261,323l-4.14,5-4.33,5.09-4.48,5.15-8.78,9.81-6.75,7.34-12.47,13.15-8.76,9-9.45,9.42L199,389.71l-3.46,2.09-2.31,1.48-2.34,1.62-2.57,1.93-2.51,2.08-2.07,1.89-2.61,2.7-2,2.37L178,407.4l-1,1.5-1.09,1.76-1.19,2.2-1.53,3.57-.75,2.26-.67,2.78-.51,3.49-.14,3.4.19,3.49.45,3.07.49,2.25,1.41,4.63,1.18,2.95,1.09,2.38,1.67,3.15,2.66,4.32,3.26,4.58,4.57,5.57,3.17,3.46,3.64,3.69,4,3.76,4.07,3.6,4.65,3.87,3.46,2.74,6.41,4.8,5.32,3.75,6.44,4.31,3.31,2.11,1.45.89-4.77,7s-4,9,5.46,13.32l11.44,7.89,17.18,11.85,6.94,4.79s3.59,3.29,6.24-2l.61-.88,1.49-2.17.33-.46,11.75,7.77a4.21,4.21,0,0,0,5.46-.75l0,0c.1-.12.19-.25.28-.38a3.35,3.35,0,0,0,.21-.36,4.18,4.18,0,0,0-1.39-5.43l-11.61-7.68.3-.44,4.77-6.91.26-.38,12.21,8.07a4.17,4.17,0,0,0,5.38-.66,3.48,3.48,0,0,0,.41-.52,3.81,3.81,0,0,0,.29-.52v0l0,0,0,0a4.2,4.2,0,0,0-1.52-5.18l-12.07-8,.36-.53,3.79-5.51s1.88-2.56-1.88-4.37L286,502.34l-13.15-9.07L257.91,483s-7.84-6.62-15.42,6.3l-1.76,2.56-1.85-1.14-3.16-2-3.2-2.1-2.91-2L224.54,481l-6.15-4.6-3.23-2.56-4.38-3.64L207,466.86l-3.68-3.46L200,460l-2.78-3-4.09-5-2.8-3.91-2.25-3.64-1.37-2.57-.84-1.8L185,438l-1.14-3.67-.32-1.42-.32-2.1-.15-2.34.07-2.19.32-2.33.43-1.83.41-1.27,1.09-2.58.79-1.49.76-1.23.73-1.07.77-1,1.48-1.76,2.09-2.17,1.6-1.47,2.06-1.71,2.17-1.64,2-1.37,2-1.3,3.66-2.21.64-.44.54-.43,10.25-10.06,9.8-10,9.6-10,9.15-9.82,7.9-8.73,3.71-4.19,9-10.44,4.23-5.09,5.23-6.5,4.47-5.77,5.39-7.32,2.74-3.91,3.13-4.72,2-3.2,3.52-6.07,2.61-5.13.81-1.85.31-.89.32-1.22.2-1.24,3.4,12.65.46,1.33.9,1.95,1,1.79,1,1.44,1.32,1.65,1.06,1.15,1.21,1.17,1.56,1.32,1.5,1.1,1.58,1,1.54.87,1.65.82,1.53.67,1.86.71,2.25.72,2.63.68,2.26.46,2,.33,1.77.22,2.25.2,2.22.13,2.83.06,3.86-.08,2.84-.17,2.17-.19,4.3-.5,2.84-.42,3.24-.57,5.59-1.14,2.73-.64,3.78-1L374,310l1.56-.77,1.51-.94,1.61-1.25,1.78-1.72,1.6-1.93,1.21-1.8,1-1.73,1.24-2.74.76-2.18.57-2,.51-2.39.4-2.59.27-3.15.07-1.61.06-.74a2.51,2.51,0,0,1,1.93-1.9l61.21-10.8.54-.12c1.72-.46,3.87-.37,4.34,0a4.4,4.4,0,0,1,.18,2.3l-4.65,18.93-3.11,13.59-2.17,10.16-3.17,16.32-2.42,14.66-1.61,12.23-.94,10.08-.41,8.84V377l0,5.77.43,6.15,1.6,9,2.14,8.35,2.72,9.19,2.56,8,5.49,16,2.12,5.91,6.45,17.38,5.19,13.54L471.19,488l4.38,11,6.15,15.21,5.57,12.94,4.41,8.42,3.27,5.46,6.19,9,6,7.46,5.38,5.91,7.24,7.33,9.79,10.39,7.82,8.89,9.38,11.69,6.32,8.94,4.08,6.63,3.43,6.62,2.38,6,.12.29c0,.09,3.95,8.91-.54,14.95-3.06,4.13-12.83,10.45-43.82,6.37l-11.2-1.4-9.81-1.77-12.21-2.91-9.73-2.86-7.95-2.7-13.36-5.25L444.13,630l-10.86-5.48-8.64-4.79-13.83-8.46-8-5.34-11.2-8.14-9-7.14-7.08-6.1c7-16-7.4-26.92-7.4-26.92L359,551.12l-7.73-5.45-8.16-5.74-5.37-3.78a4.52,4.52,0,0,0-2.42-5.42,4.75,4.75,0,0,0-6,1.43l-3.88,5.6-8.17,11.79L307,564.34c-2,2.91-4.52,6.52-1,9s5.85.1,5.85.1l12.5,8.81,9.22,6.5c5.22,5.7,22.6,15.69,34.88,5.49l6.42,5.52,9.41,7.46,11.58,8.42,8.35,5.61L418.48,630l9.08,5,11.28,5.7,10.81,4.89,13.92,5.47,7.75,2.64-366,5.1,430.65,6v0h.52c17.59,0,29.57-4.22,35.73-12.62C580.47,641,574.9,627.26,574.06,625.35Z"/><path class="cls-1" d="M267.9,693.08l-70.08,45s-17.18,10.25,1.57,12.8l22.47,1.9L201.4,773.94l-31.12,32.11,46-33,31.19-22.23s15-10.05-11.36-9l-19.83.18L233,726.21Z"/><path class="cls-1" d="M512.93,765.54c-2.87-3.22-6.7-4.81-11.5-4.81H458.9a16.39,16.39,0,0,0,4,7.82,14.34,14.34,0,0,0,11.21,4.78h27.15a3.66,3.66,0,0,1,2.89,1.37,4.82,4.82,0,0,1,0,6.41,4,4,0,0,1-3.05,1.38H462.81l-3.62,11.45h42.24a14.71,14.71,0,0,0,11.5-5,17.17,17.17,0,0,0,4.45-11.85A16.67,16.67,0,0,0,512.93,765.54Zm-39.23-23.7c-4.79,0-8.55,1.5-11.33,4.58a16.18,16.18,0,0,0-3.82,6.87H511l3.63-11.45Z"/><path class="cls-1" d="M322.26,759.13A17.34,17.34,0,0,1,327,747c3.18-3.42,7.45-5.15,12.8-5.15h28.78c5.43,0,9.69,1.73,12.8,5.15a17,17,0,0,1,4.72,12v17.63a17.13,17.13,0,0,1-4.76,11.94c-3.18,3.5-7.41,5.23-12.76,5.23H339.78c-5.28,0-9.51-1.73-12.76-5.23a17.37,17.37,0,0,1-4.76-12.07Zm43,22.94a8,8,0,0,0,5.69-2.14,7.39,7.39,0,0,0,2.2-5.64V761a7.64,7.64,0,0,0-2.2-5.68,7.73,7.73,0,0,0-5.69-2.14H343.11a7.67,7.67,0,0,0-5.65,2.14,8.11,8.11,0,0,0-2.21,5.68v13.39a7.21,7.21,0,0,0,2.21,5.52,7.89,7.89,0,0,0,5.65,2.14Z"/><path class="cls-1" d="M354.77,680.78h15.82l14.31,22.76V671.78h12v53H383.65l-21.41-37.15-21.46,37.15H327.9v-53h13v31.76Z"/><path class="cls-1" d="M314.17,677.92c-3.11-3.42-7.39-5.15-12.84-5.15H272.47c-5.37,0-9.65,1.73-12.84,5.15a17.33,17.33,0,0,0-4.73,12.16v10.15l13-8.36v-.24a8.14,8.14,0,0,1,2.21-5.71,7.72,7.72,0,0,1,5.67-2.15H298a7.48,7.48,0,0,1,7.91,7.86V705a7.41,7.41,0,0,1-2.21,5.67,8,8,0,0,1-5.7,2.15H275.78a7.92,7.92,0,0,1-5.67-2.15,7.25,7.25,0,0,1-2.21-5.54V694.46l-13,12.34v.67a17.34,17.34,0,0,0,4.77,12.07c3.26,3.5,7.5,5.23,12.8,5.23h28.86c5.37,0,9.61-1.73,12.8-5.23a17.12,17.12,0,0,0,4.77-11.95V690A17,17,0,0,0,314.17,677.92Z"/><path class="cls-1" d="M245.56,677A16.14,16.14,0,0,0,233,671.78H195.73l-4.12,12H231a5.56,5.56,0,0,1,4.43,1.91,6.57,6.57,0,0,1,1.74,4.53,6.88,6.88,0,0,1-1.74,4.62,5.88,5.88,0,0,1-4.55,1.94H191.9v28h13v-17H233a16.15,16.15,0,0,0,12.54-5.4,18.68,18.68,0,0,0,4.82-12.78A18.08,18.08,0,0,0,245.56,677Z"/><path class="cls-1" d="M471.9,695.4v29.38h13V709.59Zm40.84,10.38H515a15,15,0,0,0,11.73-5.08,17.59,17.59,0,0,0,4.59-12.06,17.11,17.11,0,0,0-4.59-11.89,15.2,15.2,0,0,0-11.83-5H475.62l-4.13,12h41.65a4.65,4.65,0,0,1,3.7,1.62,5.87,5.87,0,0,1-.3,8,5,5,0,0,1-3.51,1.4h-26.3l26.66,29h17.33Z"/><path class="cls-1" d="M421.9,712.78v-9H457l3.25-11H408.9v32h50.82l3.55-12Zm-9.93-41-4.13,12h52.23l3.65-12Z"/><path class="cls-1" d="M405.88,782.49v-9.74h34l3.15-10.3H393.28v31.49h49.24L446,782.49Zm-8.52-40.65-3.94,11.45h49.84l3.48-11.45Z"/><polygon class="cls-1" points="302.83 741.74 302.83 761.18 268.22 761.18 268.22 761.16 268.22 741.74 255.35 741.74 255.35 761.16 255.35 763.76 255.35 793.74 268.22 793.74 268.22 772.76 302.83 772.76 302.83 793.74 315.7 793.74 315.7 741.74 302.83 741.74"/></svg>