<svg xmlns="http://www.w3.org/2000/svg" xmlns:xlink="http://www.w3.org/1999/xlink" viewBox="0 0 473.63 551.73"><defs><style>.cls-1{fill:#f05154;}.cls-2{fill:url(#Dégradé_sans_nom_3);}.cls-3{fill:url(#Dégradé_sans_nom_3-2);}.cls-4{fill:url(#Dégradé_sans_nom_3-3);}.cls-5{fill:url(#Dégradé_sans_nom_3-4);}.cls-6{fill:url(#Dégradé_sans_nom_3-5);}.cls-7{fill:url(#Dégradé_sans_nom_3-6);}.cls-8{fill:url(#Dégradé_sans_nom_3-7);}.cls-9{fill:url(#Dégradé_sans_nom_3-8);}.cls-10{fill:url(#Dégradé_sans_nom_3-9);}.cls-11{fill:url(#linear-gradient);}.cls-12{fill:url(#Dégradé_sans_nom_4);}</style><linearGradient id="Dégradé_sans_nom_3" x1="566.39" y1="433.94" x2="566.39" y2="556.6" gradientUnits="userSpaceOnUse"><stop offset="0" stop-color="#f05154"/><stop offset="1" stop-color="#49318d"/></linearGradient><linearGradient id="Dégradé_sans_nom_3-2" x1="432.6" y1="433.94" x2="432.6" y2="556.6" xlink:href="#Dégradé_sans_nom_3"/><linearGradient id="Dégradé_sans_nom_3-3" x1="440.83" y1="433.94" x2="440.83" y2="556.6" xlink:href="#Dégradé_sans_nom_3"/><linearGradient id="Dégradé_sans_nom_3-4" x1="365.33" y1="433.94" x2="365.33" y2="556.6" xlink:href="#Dégradé_sans_nom_3"/><linearGradient id="Dégradé_sans_nom_3-5" x1="299.42" y1="433.94" x2="299.42" y2="556.6" xlink:href="#Dégradé_sans_nom_3"/><linearGradient id="Dégradé_sans_nom_3-6" x1="579.84" y1="433.94" x2="579.84" y2="556.6" xlink:href="#Dégradé_sans_nom_3"/><linearGradient id="Dégradé_sans_nom_3-7" x1="514.21" y1="433.94" x2="514.21" y2="556.6" xlink:href="#Dégradé_sans_nom_3"/><linearGradient id="Dégradé_sans_nom_3-8" x1="498.44" y1="433.94" x2="498.44" y2="556.6" xlink:href="#Dégradé_sans_nom_3"/><linearGradient id="Dégradé_sans_nom_3-9" x1="182.47" y1="411.85" x2="182.47" y2="534.51" xlink:href="#Dégradé_sans_nom_3"/><linearGradient id="linear-gradient" y1="404.9" x2="430.65" y2="404.9" gradientUnits="userSpaceOnUse"><stop offset="1" stop-color="#49318d"/><stop offset="1" stop-color="#f05154"/></linearGradient><linearGradient id="Dégradé_sans_nom_4" x1="452.3" y1="432.6" x2="452.3" y2="22.09" gradientUnits="userSpaceOnUse"><stop offset="0" stop-color="#49318d"/><stop offset="1" stop-color="#f05154"/></linearGradient></defs><g id="Layer_8" data-name="Layer 8"><path class="cls-1" d="M346.33,460.84,276.25,505.9s-17.19,10.25,1.56,12.8l22.48,1.9-20.46,21.11L248.7,573.82l46-33,31.2-22.23s15-10.05-11.36-9l-19.83.18L311.43,494Z" transform="translate(-181.48 -22.09)"/><path class="cls-2" d="M591.36,533.31c-2.88-3.22-6.7-4.81-11.51-4.81H537.33a16.43,16.43,0,0,0,3.95,7.81,14.33,14.33,0,0,0,11.21,4.79h27.16a3.66,3.66,0,0,1,2.89,1.37,4.82,4.82,0,0,1,0,6.41,4,4,0,0,1-3,1.38H541.24l-3.62,11.45h42.23a14.73,14.73,0,0,0,11.51-5,17.16,17.16,0,0,0,4.44-11.85A16.66,16.66,0,0,0,591.36,533.31ZM552.13,509.6c-4.8,0-8.55,1.51-11.33,4.59a16.13,16.13,0,0,0-3.82,6.87h52.41L593,509.6Z" transform="translate(-181.48 -22.09)"/><path class="cls-3" d="M400.69,526.9a17.32,17.32,0,0,1,4.72-12.16c3.18-3.41,7.44-5.14,12.8-5.14H447c5.42,0,9.69,1.73,12.79,5.14a17,17,0,0,1,4.72,12V544.4a17.15,17.15,0,0,1-4.75,12c-3.18,3.5-7.41,5.23-12.76,5.23H418.21a16.59,16.59,0,0,1-12.77-5.23,17.36,17.36,0,0,1-4.75-12.07Zm43,22.94a8,8,0,0,0,5.69-2.14,7.36,7.36,0,0,0,2.21-5.64V528.79a7.46,7.46,0,0,0-7.9-7.82H421.54a7.71,7.71,0,0,0-5.66,2.14,8.11,8.11,0,0,0-2.2,5.68v13.39a7.24,7.24,0,0,0,2.2,5.52,7.93,7.93,0,0,0,5.66,2.14Z" transform="translate(-181.48 -22.09)"/><path class="cls-4" d="M433.2,448.54H449l14.31,22.77V439.54h12v53H462.08L440.66,455.4l-21.45,37.14H406.33v-53h13v31.77Z" transform="translate(-181.48 -22.09)"/><path class="cls-5" d="M392.6,445.69c-3.11-3.42-7.39-5.15-12.84-5.15H350.9c-5.37,0-9.65,1.73-12.84,5.15a17.33,17.33,0,0,0-4.73,12.16V468l13-8.36v-.24a8.14,8.14,0,0,1,2.21-5.71,7.72,7.72,0,0,1,5.67-2.15h22.21a7.48,7.48,0,0,1,7.91,7.86v13.32a7.41,7.41,0,0,1-2.21,5.67,8,8,0,0,1-5.7,2.15H354.21a7.92,7.92,0,0,1-5.67-2.15,7.25,7.25,0,0,1-2.21-5.54V462.23l-13,12.34v.67a17.34,17.34,0,0,0,4.77,12.07c3.26,3.5,7.5,5.23,12.8,5.23h28.86c5.37,0,9.61-1.73,12.8-5.23a17.12,17.12,0,0,0,4.77-11.95V457.73A17,17,0,0,0,392.6,445.69Z" transform="translate(-181.48 -22.09)"/><path class="cls-6" d="M324,444.8a16.14,16.14,0,0,0-12.54-5.26H274.16l-4.13,12h39.36a5.56,5.56,0,0,1,4.43,1.92,6.61,6.61,0,0,1,1.73,4.53,6.92,6.92,0,0,1-1.73,4.62,5.88,5.88,0,0,1-4.55,1.93H270.33v28h13v-17h28.12a16.15,16.15,0,0,0,12.54-5.4,18.66,18.66,0,0,0,4.82-12.78A18.08,18.08,0,0,0,324,444.8Z" transform="translate(-181.48 -22.09)"/><path class="cls-7" d="M550.33,463.17v29.37h13V477.36Zm40.83,10.37h2.28a15,15,0,0,0,11.73-5.07,17.58,17.58,0,0,0,4.58-12.06,17.08,17.08,0,0,0-4.58-11.89,15.2,15.2,0,0,0-11.83-5H554.05l-4.13,12h41.65a4.68,4.68,0,0,1,3.7,1.62,5.88,5.88,0,0,1-.3,8,5,5,0,0,1-3.51,1.39h-26.3l26.65,29h17.33Z" transform="translate(-181.48 -22.09)"/><path class="cls-8" d="M500.33,480.54v-9h35.09l3.25-11H487.33v32h50.82l3.55-12Zm-9.94-41-4.12,12H538.5l3.65-12Z" transform="translate(-181.48 -22.09)"/><path class="cls-9" d="M484.3,550.26v-9.74h34l3.15-10.3H471.71v31.49H521l3.44-11.45Zm-8.52-40.66-3.94,11.46h49.85l3.48-11.46Z" transform="translate(-181.48 -22.09)"/><polygon class="cls-10" points="199.78 487.42 199.78 506.87 165.16 506.87 165.16 506.85 165.16 487.42 152.29 487.42 152.29 506.85 152.29 509.44 152.29 539.42 165.16 539.42 165.16 518.44 199.78 518.44 199.78 539.42 212.65 539.42 212.65 487.42 199.78 487.42"/></g><g id="Layer_7" data-name="Layer 7"><polygon class="cls-11" points="430.65 410.4 0 404.9 430.65 399.4 430.65 410.4"/></g><g id="Layer_5" data-name="Layer 5"><path class="cls-12" d="M549.74,421.5,542,418.86l-13.91-5.47-10.81-4.89L506,402.8l-9.08-5L482.65,389l-8.35-5.61L462.71,375l-9.41-7.46L446.89,362c-12.28,10.2-29.66.21-34.88-5.49L402.78,350l-12.49-8.8s-2.31,2.4-5.85-.1-1-6.12,1-9l10.25-14.79,8.17-11.79,3.89-5.6a4.75,4.75,0,0,1,6-1.43,4.52,4.52,0,0,1,2.42,5.41l5.37,3.78,8.15,5.75,7.74,5.45,9.17,6.47s14.35,10.9,7.4,26.92l7.08,6.1,9,7.14,11.2,8.14,8,5.34,13.83,8.46,8.64,4.79,10.86,5.48,10.32,4.66,13.37,5.25,8,2.7,9.72,2.86,12.21,2.91,9.81,1.77,11.21,1.4c31,4.08,40.75-2.24,43.82-6.37,4.48-6,.58-14.86.54-15l-.13-.29-2.38-6-3.42-6.62-4.08-6.63-6.32-8.94-9.38-11.69L608,348.92l-9.8-10.39L591,331.2l-5.38-5.91-6-7.46-6.2-9-3.26-5.46L565.71,295,560.14,282,554,266.8l-4.37-11L545,244l-5.19-13.54-6.45-17.38-2.12-5.91-5.5-16-2.56-8L520.47,174l-2.14-8.36-1.6-9-.42-6.15,0-5.77v-.31l.42-8.84.94-10.08,1.61-12.23,2.42-14.66,3.17-16.32L527,72.16l3.1-13.59,4.65-18.93a4.13,4.13,0,0,0-.18-2.3c-.46-.35-2.62-.43-4.34,0l-.53.12-61.21,10.8a2.49,2.49,0,0,0-1.93,1.9l-.06.73-.07,1.62-.28,3.14-.39,2.6-.51,2.39-.57,2-.77,2.18-1.23,2.74-1,1.73-1.21,1.8-1.6,1.93-1.78,1.71-1.61,1.26L454,77l-1.56.76-1.8.6-3.77,1-2.74.64-5.58,1.14-3.25.56-2.84.43-4.3.5-2.16.19-2.85.17-3.85.08L416.46,83l-2.22-.13-2.26-.2-1.77-.22-2-.33-2.26-.46-2.64-.68L401,80.22l-1.86-.71-1.53-.67L396,78l-1.54-.87-1.58-1-1.5-1.1-1.56-1.32-1.21-1.17-1.06-1.15-1.32-1.65-1-1.44-1-1.79-.89-2-.47-1.33-3.39-12.65-.21,1.23L379,53l-.31.89-.81,1.85-2.61,5.13L371.71,67l-2,3.2-3.14,4.72-2.73,3.91-5.39,7.32L354,91.9l-5.23,6.5-4.23,5.09-9,10.44-3.71,4.19-7.91,8.73-9.14,9.82-9.6,10-9.8,10L285.1,166.71l-.54.43-.63.44-3.67,2.21-2,1.3-2,1.37-2.17,1.64-2,1.71-1.6,1.47-2.09,2.17-1.48,1.76-.78,1-.72,1.07-.76,1.23-.79,1.49-1.09,2.58-.41,1.27-.43,1.83-.32,2.33-.07,2.19.15,2.34.32,2.1.31,1.42,1.14,3.67.86,2.1.84,1.81,1.36,2.57,2.26,3.64,2.8,3.91,4.09,5,2.77,3,3.34,3.38,3.68,3.46L289.2,238l4.39,3.64,3.23,2.55,6.14,4.61,5.07,3.57,2.92,2,3.19,2.1,3.16,2,1.85,1.14,1.77-2.56c7.58-12.92,15.42-6.3,15.42-6.3L351.28,261l13.15,9.07,9.95,6.87c3.76,1.81,1.88,4.37,1.88,4.37l-3.79,5.51-.36.53,12.07,8a4.2,4.2,0,0,1,1.52,5.18l0,0,0,0v0a3.81,3.81,0,0,1-.29.52,3.48,3.48,0,0,1-.41.52,4.17,4.17,0,0,1-5.38.66l-12.21-8.07-.26.38-4.77,6.91-.3.44,11.61,7.68a4.18,4.18,0,0,1,1.39,5.43,3.35,3.35,0,0,1-.21.36c-.09.13-.18.26-.28.38l0,0a4.21,4.21,0,0,1-5.46.75l-11.75-7.77-.33.46-1.49,2.17-.61.88c-2.65,5.25-6.24,2-6.24,2l-6.94-4.79L324.5,297.71l-11.44-7.89c-9.5-4.28-5.46-13.32-5.46-13.32l4.76-7-1.45-.89-3.3-2.12-6.45-4.3-5.32-3.75-6.4-4.8L286,250.9,281.33,247l-4.07-3.6-4-3.76L269.63,236l-3.16-3.46L261.9,227l-3.26-4.58L256,218.05l-1.67-3.15-1.1-2.38-1.17-3-1.42-4.63-.48-2.25-.45-3.07-.2-3.49.15-3.4.5-3.49.68-2.78.75-2.26,1.53-3.57,1.18-2.2,1.09-1.76,1-1.5,1.15-1.53,2-2.37,2.62-2.7,2.07-1.89,2.5-2.08,2.58-1.93,2.34-1.62,2.31-1.48,3.45-2.09,2.87-2.79,9.45-9.42,8.76-9L311,123.16l6.76-7.34,8.78-9.81,4.48-5.15,4.32-5.09,4.14-5,5.09-6.32,6-7.76,3.59-4.92,2.59-3.71,3-4.47,1.84-2.93,3.94-6.89L367,50.58l.44-1,.1-.49,0-4.38.11-6,.32-4.66.58-4c.73-4.45,3.21-7.39,6.65-7.95,3.64-.6,6.7,1.44,9.12,6l1.09,2.31L386,32l1.56,4.19,1.68,5.17,2.29,7.82,2.95,11,.48,1,.5.86.48.68.77.95.52.56.69.65,1,.8.87.63,1,.63,1,.54,1.1.54,1,.43,1.3.49,1.62.52,2,.5,1.68.34,2.94.42,1.85.16L417,71l2.27,0h1.37l2-.07,4.38-.31,3.82-.45,2.57-.38,5.08-.93,5.53-1.24,3.77-1,.4-.21.48-.31,1-.86.66-.72.48-.62.68-1,.8-1.52.41-1,.5-1.44.35-1.3L454,56l.27-1.87.21-2.46.07-1.6.14-1.57a14.49,14.49,0,0,1,11.74-12l61-10.76c1.89-.47,9.66-2,15,2.54,2.4,2,5.08,6,4.25,13.13l-.14.76L545,48.05l-3.24,13.28-3.07,13.42-2.14,10-3.11,16.08-2.37,14.31L529.54,127l-.89,9.6-.38,8.26,0,5.41.37,5.25,1.42,7.8,2,7.62,2.61,8.82,2.48,7.72,5.41,15.75,2.07,5.77,6.41,17.27,5.15,13.44,4.58,11.71,4.35,10.93,6.11,15.12,5.4,12.54,4,7.64,2.92,4.85,5.76,8.36,5.46,6.78,4.93,5.4,7.14,7.22,10,10.68,8.16,9.28,9.79,12.22,6.74,9.57,4.52,7.36L650,387l2.45,6.14c.84,1.91,6.4,15.63-1.81,26.83-6.15,8.4-18.13,12.62-35.73,12.62l-.51,0S574.1,432,549.74,421.5Z" transform="translate(-181.48 -22.09)"/></g><g id="Layer_6" data-name="Layer 6"><path class="cls-1" d="M405,97.07l-63.54,40.84s-15.58,9.3,1.42,11.61l20.38,1.72-18.55,19.14-28.22,29.11,41.73-29.91,28.28-20.15s14.52-7.75-14.71-7.4l-13.56-.56,15.13-14.37Z" transform="translate(-181.48 -22.09)"/></g></svg>